<svg width="128" height="128" viewBox="0 0 128 128" xmlns="http://www.w3.org/2000/svg">
  <defs>
    <linearGradient id="bgGradient" x1="0%" y1="0%" x2="100%" y2="100%">
      <stop offset="0%" style="stop-color:#FF4444;stop-opacity:1" />
      <stop offset="100%" style="stop-color:#CC0000;stop-opacity:1" />
    </linearGradient>
    <linearGradient id="aiGradient" x1="0%" y1="0%" x2="100%" y2="100%">
      <stop offset="0%" style="stop-color:#4A90E2;stop-opacity:1" />
      <stop offset="100%" style="stop-color:#7B68EE;stop-opacity:1" />
    </linearGradient>
  </defs>
  
  <!-- Background -->
  <rect width="128" height="128" rx="24" ry="24" fill="url(#bgGradient)"/>
  
  <!-- Play button -->
  <circle cx="64" cy="64" r="32" fill="white" opacity="0.95"/>
  <polygon points="56,48 56,80 80,64" fill="url(#bgGradient)"/>
  
  <!-- AI sparkles -->
  <g fill="url(#aiGradient)" opacity="0.8">
    <!-- Top right sparkle -->
    <circle cx="100" cy="28" r="3"/>
    <rect x="98" y="20" width="4" height="16" rx="2"/>
    <rect x="92" y="26" width="16" height="4" rx="2"/>
    
    <!-- Bottom left sparkle -->
    <circle cx="28" cy="100" r="2.5"/>
    <rect x="26.5" y="94" width="3" height="12" rx="1.5"/>
    <rect x="22" y="98.5" width="12" height="3" rx="1.5"/>
    
    <!-- Small sparkles -->
    <circle cx="96" cy="96" r="2"/>
    <circle cx="32" cy="32" r="1.5"/>
    <circle cx="20" cy="60" r="1"/>
    <circle cx="108" cy="70" r="1"/>
  </g>
  
  <!-- AI circuit lines -->
  <g stroke="url(#aiGradient)" stroke-width="2" fill="none" opacity="0.6">
    <path d="M16,45 Q20,40 28,40 L35,40"/>
    <path d="M93,88 L100,88 Q108,88 108,96"/>
    <circle cx="35" cy="40" r="2" fill="url(#aiGradient)"/>
    <circle cx="108" cy="96" r="2" fill="url(#aiGradient)"/>
  </g>
</svg>